<svg width="32" height="24" viewBox="0 0 32 24" fill="none" xmlns="http://www.w3.org/2000/svg">
<path d="M3.55001 0.839355C2.71632 0.839355 1.91699 1.12271 1.32675 1.67169C0.736481 2.22038 0.370483 3.03551 0.370483 4.01888V20.7125C0.370483 21.6959 0.736736 22.5113 1.32703 23.06C1.91702 23.6089 2.71661 23.8923 3.55001 23.8923H28.193C29.0267 23.8923 29.826 23.609 30.4163 23.06C31.0068 22.5113 31.3728 21.6962 31.3728 20.7128V4.01917C31.3728 3.03579 31.0068 2.22063 30.4165 1.67169C29.8263 1.12301 29.0267 0.839639 28.1933 0.839639L3.55001 0.839355ZM3.55001 1.63422H28.193C28.847 1.63422 29.4409 1.84382 29.8698 2.24279C30.299 2.64175 30.5779 3.229 30.5779 4.01883V20.7125C30.5779 21.5026 30.299 22.0773 29.8698 22.4764C29.4409 22.8753 28.847 23.0974 28.1933 23.0974H3.5503C2.89654 23.0974 2.30267 22.8753 1.87348 22.4764C1.44457 22.0774 1.16565 21.5026 1.16565 20.7127V4.01911C1.16565 3.22893 1.44457 2.64203 1.87376 2.24307C2.30267 1.84383 2.89652 1.63423 3.55029 1.63423L3.55001 1.63422ZM21.0386 4.81403C19.7261 4.81403 18.6536 5.88641 18.6536 7.19898C18.6536 8.51154 19.726 9.58393 21.0386 9.58393C21.8684 9.58393 22.5984 9.15058 23.0259 8.50317C23.4537 9.15027 24.1835 9.58364 25.0135 9.58364C26.326 9.58364 27.3985 8.51126 27.3985 7.19869C27.3985 5.8862 26.3261 4.81375 25.0135 4.81375C24.1838 4.81375 23.4537 5.24709 23.0262 5.8945C22.5987 5.2474 21.8687 4.81403 21.0389 4.81403H21.0386ZM4.27042 4.82651C4.0622 4.84592 3.89058 5.05302 3.91027 5.26124C3.92968 5.46945 4.13679 5.64107 4.345 5.62139H12.6918C12.9017 5.62443 13.0949 5.43397 13.0949 5.2238C13.0949 5.01393 12.9017 4.82345 12.6918 4.82622H4.27048L4.27042 4.82651ZM21.0386 5.60888C21.9214 5.60888 22.6283 6.31587 22.6283 7.19861C22.6283 8.08135 21.9213 8.78834 21.0386 8.78834C20.1558 8.78834 19.4489 8.08135 19.4489 7.19861C19.4489 6.31587 20.1558 5.60888 21.0386 5.60888ZM25.0133 5.60888C25.8961 5.60888 26.603 6.31587 26.603 7.19861C26.603 8.08135 25.896 8.78834 25.0133 8.78834C24.1305 8.78834 23.4235 8.08135 23.4235 7.19861C23.4235 6.31587 24.1305 5.60888 25.0133 5.60888ZM4.27042 7.99383C4.0622 8.01324 3.89058 8.22034 3.91027 8.42856C3.92968 8.6365 4.13679 8.80812 4.345 8.7887H8.31968C8.52956 8.79175 8.7228 8.60128 8.7228 8.39112C8.7228 8.18125 8.52956 7.99077 8.31968 7.99354H4.27041L4.27042 7.99383ZM4.27042 16.7381C4.0622 16.7575 3.89058 16.9646 3.91027 17.1728C3.92968 17.3808 4.13679 17.5524 4.345 17.533H27.3981C27.608 17.536 27.8012 17.3456 27.8012 17.1354C27.8012 16.9255 27.608 16.7351 27.3981 16.7378H4.27048L4.27042 16.7381ZM4.27042 19.9179C4.0622 19.9373 3.89058 20.1444 3.91027 20.3527C3.92968 20.5606 4.13679 20.7322 4.345 20.7128H27.3981C27.608 20.7159 27.8012 20.5254 27.8012 20.3152C27.8012 20.1053 27.608 19.9149 27.3981 19.9176H4.27048L4.27042 19.9179Z" fill="#979797"/>
</svg>
