<svg width="25" height="24" viewBox="0 0 25 24" fill="none" xmlns="http://www.w3.org/2000/svg">
<path d="M5.67034 1.70524C5.69558 1.74592 5.71932 1.78677 5.74207 1.82745C6.37384 2.95483 6.30727 4.74223 8.07725 4.74223H20.8868C22.8102 4.74223 22.8193 1.70588 20.8868 1.70588C20.8868 1.70024 6.94022 1.70522 5.67058 1.70522L5.67034 1.70524ZM4.10529 8.87596H15.2868C16.4068 8.87596 16.4068 10.5685 15.2868 10.5685H4.10529C2.98636 10.5685 2.98636 8.87596 4.10529 8.87596ZM6.36272 15.2799H13.0297C13.6975 15.2799 13.6975 16.9724 13.0297 16.9724H6.36272C5.69491 16.9724 5.69491 15.2799 6.36272 15.2799ZM4.10529 12.0782H15.2868C16.4068 12.0782 16.4068 13.7707 15.2868 13.7707H4.10529C2.98636 13.7707 2.98636 12.0782 4.10529 12.0782ZM3.53975 1.71698C2.48705 1.80979 1.70601 2.47162 1.70601 3.57243V20.7639L3.164 19.177C3.50089 18.8101 4.0805 18.8118 4.41677 19.177L6.7275 21.6922L9.0379 19.177C9.37512 18.8101 9.95441 18.8118 10.291 19.177L12.6014 21.6922L14.9121 19.177C15.2311 18.831 15.7697 18.8089 16.1154 19.1269C16.5969 19.5717 17.1636 20.2632 17.623 20.7639V6.44753H8.07668C4.74678 6.44753 5.0694 3.41603 3.53919 1.71665L3.53975 1.71698ZM19.3289 6.44786L19.3271 22.9507C19.3271 23.716 18.378 24.1012 17.8495 23.5272L15.5391 21.0115L13.228 23.5272C12.8918 23.8924 12.3122 23.8931 11.9753 23.5272L9.66418 21.0115L7.35378 23.5272C7.01722 23.8924 6.43791 23.8931 6.10072 23.5272L3.78998 21.0115L1.51541 23.4878C1.01597 24.1035 0 23.7581 0 22.9508V3.57248C0 1.42611 1.7112 0 3.78998 0H20.887C25.0584 0 25.0535 6.44769 20.8867 6.44769H19.3293L19.3289 6.44786Z" fill="#6338FA"/>
</svg>
