<svg width="29" height="24" viewBox="0 0 29 24" fill="none" xmlns="http://www.w3.org/2000/svg">
<path fill-rule="evenodd" clip-rule="evenodd" d="M17.0998 6.6333C16.4968 6.71952 16.1951 6.97791 16.1951 7.45174C16.1951 7.66716 16.2813 7.83932 16.4105 8.01177C16.5397 8.14096 16.7551 8.27016 17.0997 8.39935L17.0998 6.6333ZM18.3058 10.6392V12.4482C18.9088 12.362 19.2534 12.0606 19.2534 11.5868C19.2534 11.3714 19.1671 11.156 19.0379 11.0268C18.9087 10.8976 18.6504 10.7684 18.3058 10.6392L18.3058 10.6392ZM8.95913 9.69157C8.91617 10.5529 9.04536 11.4143 9.26079 12.2327C9.30375 12.4049 9.34701 12.5344 9.38998 12.7066C10.553 12.7928 11.6728 12.8787 12.7925 13.0082C13.3093 13.0512 13.8263 13.0944 14.3431 13.1804L14.4293 13.2233C14.1277 13.0512 13.9985 12.7925 13.9985 12.4482C13.9985 12.1898 14.0847 11.9744 14.2569 11.8022C14.429 11.6301 14.6445 11.5438 14.9028 11.5438C15.075 11.5438 15.2475 11.5868 15.4196 11.716C15.9796 12.1036 16.5394 12.319 17.0994 12.4482V10.3808C16.1088 10.1224 15.4196 9.7778 14.9458 9.34699C14.515 8.91615 14.2566 8.35641 14.2566 7.58096C14.2566 6.84877 14.515 6.28872 14.9888 5.81492C15.5056 5.34112 16.1518 5.08274 16.9703 4.99648V4.82432C16.9703 4.65216 17.0565 4.4797 17.1857 4.35051C17.3149 4.22132 17.4873 4.13509 17.6595 4.13509C17.8316 4.13509 18.0041 4.22132 18.1333 4.35051C18.2625 4.4797 18.3487 4.65216 18.3487 4.82432V4.99648C19.0379 5.08271 19.6839 5.29813 20.244 5.64244C20.5456 5.81459 20.7178 6.07328 20.7178 6.41758C20.7178 6.67597 20.6315 6.84842 20.4594 7.02057C20.2872 7.19273 20.0718 7.27896 19.8134 7.27896C19.6413 7.27896 19.5118 7.236 19.3396 7.14977C18.952 6.93435 18.6074 6.80515 18.2628 6.71892V8.70039C19.2534 8.95878 19.9856 9.30339 20.4164 9.7772C20.8473 10.208 21.0624 10.811 21.0624 11.5432C21.0624 12.2755 20.804 12.8355 20.2872 13.3093C20.0718 13.5247 19.8134 13.6539 19.5121 13.7831L19.7705 13.826C20.9765 14.0844 21.7087 14.9458 21.6224 16.0659C21.5795 16.7551 21.3208 17.3581 20.8902 17.7457C21.364 17.444 21.924 16.9705 22.4838 16.4967C22.9147 16.1092 23.3452 15.6783 23.7761 15.2907C23.9915 15.0753 24.1637 14.9031 24.3791 14.7307C24.3791 14.6015 24.422 14.5153 24.5083 14.3861C25.2834 13.1371 25.7143 11.7157 25.7572 10.2081C25.8864 5.5133 22.2251 1.63673 17.5735 1.46444C13.0076 1.33555 9.0883 4.99681 8.95908 9.69121L8.95913 9.69157ZM8.74371 14.128C8.35613 14.085 7.96857 14.171 7.62391 14.3864C6.93469 14.774 6.24545 15.1615 5.59953 15.5494C4.99653 15.894 4.4365 16.1954 3.83349 16.54C3.2305 16.8846 2.67047 17.2292 2.06746 17.5738L1.85204 17.703C2.75671 19.3828 3.91942 20.8904 5.3408 22.1394C6.20217 21.7948 7.23605 21.4502 8.44199 21.4072H9.99259H10.854H14.0844H19.8559C21.1482 21.4072 22.0525 21.1056 22.828 20.4596C23.6894 19.7274 24.5507 19.0383 25.4125 18.306L26.7909 17.1862C27.1355 16.9278 27.3077 16.6262 27.351 16.2816C27.3939 16.1094 27.3939 15.8507 27.2647 15.6356C27.1355 15.4635 26.8772 15.3772 26.7047 15.3772C26.2739 15.3343 25.9296 15.4635 25.5849 15.8081C25.3695 15.9802 25.1973 16.1956 24.9819 16.3681C24.5511 16.7989 24.0772 17.2295 23.6035 17.617C22.4837 18.6076 21.5361 19.3831 20.5885 19.5552C19.8563 19.6844 18.7795 19.5122 17.6164 19.3398C17.4443 19.2968 17.3148 19.2968 17.1856 19.2535C16.238 19.0814 15.2903 18.866 14.5152 18.6506C13.6105 18.4351 13.4814 17.9184 13.5676 17.1862L13.6106 16.9708L13.9982 16.4107L14.3428 16.4537H14.6444L15.6782 16.5829C16.3242 16.6691 16.9272 16.7121 17.5735 16.7983L17.9181 16.8413C18.3919 16.8842 18.8228 16.9275 19.2966 16.9275C19.8995 16.9275 20.2871 16.5399 20.3304 15.8937C20.3733 15.4199 19.8566 15.2477 19.6844 15.2045C18.823 15.0323 17.9184 14.9028 16.9278 14.8169C15.5493 14.6447 14.1712 14.5152 12.7498 14.386C11.371 14.3434 10.0788 14.2142 8.74363 14.128L8.74371 14.128ZM17.4873 0.000346332H17.7028C23.216 0.172504 27.5232 4.78135 27.3509 10.2515C27.308 11.5004 27.0493 12.7497 26.5325 13.8695H26.8341C27.4801 13.9557 28.0401 14.2571 28.4277 14.7308C28.7723 15.2047 28.9015 15.8506 28.7723 16.5399C28.6431 17.2291 28.2985 17.8321 27.6955 18.3059L26.3171 19.4689C25.4557 20.2011 24.5943 20.8903 23.7759 21.6225C22.7421 22.5272 21.4502 22.9148 19.8563 22.9148H19.8133H14.0847H10.8543H9.99293H8.48525C7.6668 22.9148 6.80544 23.1302 5.72864 23.604C5.55648 23.6902 5.38402 23.6902 5.25483 23.6902C4.99644 23.6902 4.78102 23.604 4.60887 23.4318C2.88614 21.8812 1.46468 20.0722 0.38788 17.9616C0.344916 17.9186 0.344916 17.8324 0.301651 17.7462L0 17.057L1.33516 16.2385C1.93815 15.8939 2.49818 15.5493 3.10119 15.2047C3.70419 14.8601 4.30721 14.5155 4.86722 14.2141C5.55645 13.8266 6.20238 13.439 6.89161 13.0943C7.19326 12.9222 7.53757 12.7927 7.8392 12.7068C7.8392 12.6638 7.8392 12.6638 7.79624 12.6205C7.53785 11.6729 7.40866 10.6391 7.45162 9.64847C7.62348 4.22123 12.1032 -0.0427486 17.4874 0.000323446L17.4873 0.000346332Z" fill="#6338FA"/>
</svg>
