<svg width="54" height="41" viewBox="0 0 54 41" fill="none" xmlns="http://www.w3.org/2000/svg">
<path d="M9.57411 21.6249C8.9666 21.2788 8.73516 20.5005 9.11124 19.8949C9.45839 19.2605 10.2392 19.0586 10.8467 19.4047L13.0739 20.7021V18.1073C13.0739 17.3863 13.6525 16.8099 14.3465 16.8099C15.0697 16.8099 15.648 17.3866 15.648 18.1073V25.4885L17.8463 24.22C18.4538 23.8739 19.2346 24.0758 19.6107 24.6814C19.9579 25.287 19.7554 26.0941 19.1189 26.4402L15.648 28.4585V31.1398C17.2967 30.9379 18.8007 30.3035 20.0733 29.3522C21.5483 28.2566 22.6763 26.7285 23.3417 24.9986C21.4037 22.4038 20.2758 19.1743 20.2758 15.6859C20.2758 15.2245 20.3047 14.7346 20.3336 14.2732C19.5815 13.6676 18.7428 13.1776 17.8171 12.8316C16.747 12.399 15.5898 12.1683 14.3462 12.1683C11.7143 12.1683 9.31344 13.235 7.57799 14.965C5.87148 16.6949 4.8014 19.0593 4.8014 21.7118C4.8014 24.3354 5.87148 26.7286 7.57799 28.4586C9.02415 29.8713 10.9332 30.8518 13.0736 31.1399V23.6433L9.5738 21.6249L9.57411 21.6249ZM1.27258 41C0.578276 41 0 40.4232 0 39.7314C0 39.0105 0.578585 38.4341 1.27258 38.4341H13.0734V33.7344C10.2389 33.446 7.69348 32.1487 5.78446 30.2457C3.58614 28.0543 2.22678 25.0558 2.22678 21.7112C2.22678 18.3667 3.58614 15.3393 5.78446 13.1476C7.95384 10.9562 10.9908 9.60113 14.346 9.60113C15.9078 9.60113 17.3829 9.88951 18.7712 10.4374C19.4944 10.7258 20.1884 11.0719 20.8538 11.5041C21.577 8.85166 22.9943 6.48727 24.9033 4.58428C27.7377 1.7588 31.6715 0 36.0098 0C40.3772 0 44.3113 1.7588 47.1456 4.58428C50.009 7.43861 51.7734 11.3599 51.7734 15.6849C51.7734 20.0385 50.009 23.9602 47.1456 26.7855C44.6005 29.3515 41.1585 31.0238 37.3112 31.341V38.4338H52.6985C53.4217 38.4338 54 39.0106 54 39.7312C54 40.4233 53.4214 40.9998 52.6985 40.9998H1.27157L1.27258 41ZM15.6477 38.4341H34.7379V31.3412C31.0645 31.0528 27.7383 29.4959 25.1928 27.103C24.3539 28.8041 23.1102 30.2745 21.6062 31.37C19.8997 32.6674 17.8749 33.5037 15.648 33.7344V38.4341H15.6477ZM40.8987 19.4334C41.5062 19.0585 42.287 19.2892 42.6631 19.8948C43.0102 20.5004 42.8077 21.2787 42.1713 21.6248L37.3121 24.4503V28.775C40.4358 28.4578 43.2413 27.0739 45.3529 24.9979C47.7247 22.6047 49.1998 19.3178 49.1998 15.6852C49.1998 12.0811 47.7247 8.79421 45.3529 6.40099C42.952 4.0366 39.6547 2.56618 36.0106 2.56618C32.3951 2.56618 29.0978 4.0366 26.697 6.40099C24.3251 8.79421 22.85 12.0811 22.85 15.6852C22.85 19.3182 24.3251 22.605 26.697 24.9979C28.8085 27.0739 31.614 28.4578 34.7378 28.775V18.0489L29.8496 15.2234C29.2421 14.8774 29.0396 14.0991 29.3868 13.4935C29.7629 12.859 30.5436 12.6572 31.1512 13.0032L34.7378 15.0792V10.8984C34.7378 10.1774 35.3163 9.60098 36.0103 9.60098C36.7336 9.60098 37.3118 10.1777 37.3118 10.8984V21.4799L40.8984 19.4327L40.8987 19.4334Z" fill="#2F7D81"/>
</svg>
