<svg width="19" height="23" viewBox="0 0 19 23" fill="none" xmlns="http://www.w3.org/2000/svg">
<path d="M18.3182 21.3712C18.3182 21.9334 17.8624 22.3888 17.3006 22.3888C16.7383 22.3888 16.2826 21.9334 16.2826 21.3712C16.2826 17.4367 13.0935 14.2476 9.15908 14.2476C5.22467 14.2476 2.03553 17.4368 2.03553 21.3712C2.03553 21.9334 1.57979 22.3888 1.01758 22.3888C0.455718 22.3888 0 21.9334 0 21.3712C0 16.3126 4.10059 12.2121 9.15908 12.2121C14.2176 12.2121 18.3182 16.3127 18.3182 21.3712ZM9.15908 11.1944C6.06789 11.1944 3.56168 8.68858 3.56168 5.59703C3.56168 2.50584 6.06789 0 9.15908 0C12.2503 0 14.7565 2.50584 14.7565 5.59703C14.7565 8.68849 12.2503 11.1944 9.15908 11.1944ZM9.15908 9.15926C11.1261 9.15926 12.7208 7.56451 12.7208 5.59712C12.7208 3.6301 11.1261 2.03535 9.15908 2.03535C7.19206 2.03535 5.5973 3.6301 5.5973 5.59712C5.5973 7.56451 7.19206 9.15926 9.15908 9.15926Z" fill="#6338FA"/>
</svg>
