<svg width="14" height="15" viewBox="0 0 14 15" fill="none" xmlns="http://www.w3.org/2000/svg">
<path d="M6.96259 3.68433C6.0336 3.68433 5.14267 4.05337 4.48577 4.71026C3.82888 5.36715 3.45984 6.25809 3.45984 7.18708C3.45984 8.11607 3.82888 9.00701 4.48577 9.6639C5.14267 10.3208 6.0336 10.6898 6.96259 10.6898C7.89158 10.6898 8.78252 10.3208 9.43941 9.6639C10.0963 9.00701 10.4653 8.11607 10.4653 7.18708C10.4653 6.25809 10.0963 5.36715 9.43941 4.71026C8.78252 4.05337 7.89158 3.68433 6.96259 3.68433ZM6.96259 9.4619C6.35907 9.4619 5.78027 9.22215 5.35352 8.7954C4.92676 8.36865 4.68701 7.78984 4.68701 7.18632C4.68701 6.5828 4.92676 6.004 5.35352 5.57725C5.78027 5.15049 6.35907 4.91074 6.96259 4.91074C7.56611 4.91074 8.14492 5.15049 8.57167 5.57725C8.99842 6.004 9.23817 6.5828 9.23817 7.18632C9.23817 7.78984 8.99842 8.36865 8.57167 8.7954C8.14492 9.22215 7.56611 9.4619 6.96259 9.4619Z" fill="#FF725E"/>
<path d="M13.4272 2.72553C13.2519 2.27267 12.9839 1.86141 12.6404 1.51809C12.297 1.17476 11.8856 0.906935 11.4327 0.731743C10.9027 0.532787 10.3428 0.425208 9.77676 0.413586C9.04727 0.381771 8.81623 0.372681 6.96638 0.372681C5.11652 0.372681 4.87942 0.372681 4.15599 0.413586C3.59042 0.424613 3.0309 0.532215 2.50158 0.731743C2.04853 0.90673 1.63707 1.17449 1.29359 1.51784C0.950111 1.86119 0.682196 2.27255 0.507037 2.72553C0.308041 3.25549 0.200708 3.81547 0.189638 4.38145C0.157064 5.11019 0.147217 5.34123 0.147217 7.19184C0.147217 9.04169 0.147217 9.27728 0.189638 10.0022C0.201 10.5688 0.30781 11.1279 0.507037 11.6589C0.682688 12.1117 0.950863 12.5229 1.29443 12.8662C1.63799 13.2095 2.04939 13.4774 2.50233 13.6527C3.03065 13.8596 3.59041 13.9749 4.15751 13.9936C4.88699 14.0254 5.11804 14.0352 6.96789 14.0352C8.81775 14.0352 9.05485 14.0352 9.77828 13.9936C10.3442 13.9821 10.9041 13.8747 11.4342 13.6762C11.887 13.5006 12.2982 13.2325 12.6417 12.8891C12.9851 12.5457 13.2531 12.1344 13.4287 11.6816C13.628 11.1514 13.7348 10.5923 13.7461 10.0257C13.7787 9.29698 13.7886 9.06593 13.7886 7.21532C13.7886 5.36471 13.7886 5.12988 13.7461 4.40494C13.7373 3.83095 13.6294 3.26279 13.4272 2.72553ZM12.5046 9.94617C12.4997 10.3827 12.42 10.8152 12.269 11.2249C12.1552 11.5194 11.9811 11.7869 11.7577 12.0102C11.5344 12.2334 11.2668 12.4074 10.9721 12.521C10.567 12.6713 10.1391 12.751 9.70707 12.7566C8.98743 12.7899 8.78442 12.7982 6.93911 12.7982C5.09228 12.7982 4.90366 12.7982 4.17038 12.7566C3.73855 12.7513 3.31085 12.6716 2.90609 12.521C2.61042 12.4081 2.34174 12.2344 2.11743 12.0111C1.89312 11.7879 1.71818 11.52 1.60392 11.2249C1.45503 10.8196 1.37539 10.3922 1.36833 9.96056C1.33576 9.24092 1.32818 9.03791 1.32818 7.1926C1.32818 5.34653 1.32818 5.15791 1.36833 4.42388C1.37323 3.98756 1.45291 3.55532 1.60392 3.14595C1.83496 2.54827 2.30841 2.07785 2.90609 1.84908C3.31105 1.6992 3.73862 1.61952 4.17038 1.61349C4.89078 1.58092 5.09304 1.57183 6.93911 1.57183C8.78517 1.57183 8.97455 1.57183 9.70707 1.61349C10.1392 1.61869 10.5671 1.69839 10.9721 1.84908C11.2667 1.96291 11.5343 2.13709 11.7576 2.36043C11.981 2.58376 12.1552 2.85133 12.269 3.14595C12.4179 3.55118 12.4975 3.97858 12.5046 4.41024C12.5371 5.13064 12.5455 5.33289 12.5455 7.17896C12.5455 9.02427 12.5455 9.22274 12.5129 9.94692H12.5046V9.94617Z" fill="#FF725E"/>
</svg>
