<svg width="15" height="14" viewBox="0 0 15 14" fill="none" xmlns="http://www.w3.org/2000/svg">
<path d="M0.133301 1.94283C0.133301 1.48766 0.296807 1.11217 0.62382 0.816348C0.950833 0.520526 1.37594 0.372596 1.89914 0.372559C2.41308 0.372559 2.82886 0.518206 3.14646 0.809502C3.47347 1.10993 3.63698 1.50136 3.63698 1.98379C3.63698 2.42074 3.47824 2.78485 3.16075 3.07615C2.83369 3.37654 2.40392 3.52673 1.87143 3.52673H1.85738C1.34351 3.52673 0.927757 3.37654 0.610114 3.07615C0.292471 2.77576 0.133533 2.39799 0.133301 1.94283ZM0.315489 13.8905V4.76915H3.42674V13.8905H0.315489ZM5.15059 13.8905H8.26184V8.79738C8.26184 8.47873 8.29922 8.23295 8.37398 8.06003C8.50215 7.75398 8.70692 7.48408 8.96962 7.27492C9.23589 7.061 9.56991 6.95403 9.97169 6.95403C11.0181 6.95403 11.5413 7.6413 11.5413 9.01585V13.8905H14.6526V8.66084C14.6526 7.31357 14.3256 6.29175 13.6715 5.59539C13.0175 4.89903 12.1533 4.55085 11.0788 4.55085C9.87352 4.55085 8.9346 5.05605 8.26207 6.06645V6.09378H8.24807L8.26207 6.06645V4.76915H5.15059C5.16929 5.06044 5.17864 5.96619 5.17864 7.48638C5.17864 9.00657 5.16929 11.1413 5.15059 13.8905Z" fill="#FF725E"/>
</svg>
