<svg width="73" height="72" viewBox="0 0 73 72" fill="none" xmlns="http://www.w3.org/2000/svg">
<path d="M42.4008 8.53181C42.4008 5.9098 42.7086 3.78106 40.6653 1.73778C36.9234 -2.00418 30.5971 0.716173 30.5971 5.91048V8.53249C18.2402 11.0548 8.5047 21.4803 8.5047 34.2439C8.5047 40.607 9.21856 48.7431 6.14165 54.281C5.12005 56.1028 3.72911 57.4321 1.92013 57.4321C0.861722 57.4321 0 58.2811 0 59.3402V69.9129C0 70.9713 0.861705 71.833 1.92013 71.833H71.0799C72.1383 71.833 73 70.9713 73 69.9129L72.9993 59.3402C72.9993 58.2818 72.1376 57.4321 71.0792 57.4321C66.0207 57.4321 64.4946 47.6716 64.4946 44.0528C64.4946 33.5417 65.541 25.689 57.7006 17.122C53.7867 12.8515 48.4445 9.76257 42.4012 8.53163L42.4008 8.53181ZM51.3245 24.4836C49.3923 22.896 51.7921 19.9414 53.737 21.5172C58.4509 25.3447 58.9682 33.8006 55.3246 33.1978C51.9399 32.6311 56.0144 28.2863 51.3246 24.4836H51.3245Z" fill="url(#paint0_linear_65_336)"/>
<defs>
<linearGradient id="paint0_linear_65_336" x1="36.5" y1="0" x2="36.5" y2="71.833" gradientUnits="userSpaceOnUse">
<stop stop-color="#FF725E"/>
<stop offset="1" stop-color="#6338FA"/>
</linearGradient>
</defs>
</svg>
