<svg width="26" height="26" viewBox="0 0 26 26" fill="none" xmlns="http://www.w3.org/2000/svg">
<path d="M21.4132 17.2106L21.4139 17.2114C21.4387 17.2413 21.4781 17.2891 21.5193 17.3393C21.567 17.3972 21.6173 17.4582 21.6507 17.4986C21.7642 17.6356 21.836 17.8023 21.8576 17.9789C21.8792 18.1555 21.8498 18.3346 21.7727 18.495L21.7721 18.4962C21.6064 18.8426 21.2527 19.074 20.8132 19.074H5.83206C5.38691 19.074 5.03134 18.8404 4.8674 18.4949L4.86633 18.4927C4.78962 18.3324 4.76044 18.1535 4.78224 17.9772C4.80404 17.8008 4.8759 17.6344 4.98933 17.4976L4.98935 17.4976L4.99387 17.4921C5.06196 17.4084 5.12893 17.3276 5.19741 17.2451C5.20709 17.2334 5.2168 17.2217 5.22655 17.2099L5.22672 17.2097L5.25037 17.1812C5.77196 16.5517 6.27447 15.9452 6.6153 15.0051C6.95535 14.0671 7.1175 12.8531 7.1175 10.9922C7.1175 9.43484 7.42928 8.21682 8.00875 7.27516C8.5839 6.34053 9.46021 5.6169 10.7007 5.10622L10.7434 5.08863L10.7838 5.0661C10.8739 5.01573 10.955 4.95067 11.0237 4.87359L11.1383 4.74495L11.1876 4.57988C11.5286 3.43933 12.4196 2.7779 13.32 2.7779C14.2203 2.7779 15.1118 3.43927 15.4527 4.58112L15.4998 4.73871L15.6068 4.86361C15.6778 4.94653 15.763 5.01616 15.8585 5.06925L15.8982 5.09138L15.9404 5.10871C17.0071 5.54757 17.7768 6.12334 18.338 6.85706L18.3384 6.85762C19.0999 7.85138 19.5229 9.22263 19.5229 10.9936C19.5229 12.854 19.6854 14.0676 20.0255 15.0055C20.3659 15.9441 20.8674 16.5505 21.3875 17.1794L21.4132 17.2106Z" stroke="#9592A6" stroke-width="1.55043"/>
<path d="M13.32 23.7307C14.0208 23.7301 14.7084 23.5398 15.3099 23.1801C15.9114 22.8204 16.4043 22.3045 16.7363 21.6873C16.7519 21.6578 16.7597 21.6246 16.7587 21.5912C16.7578 21.5578 16.7482 21.5251 16.7309 21.4965C16.7136 21.4678 16.6892 21.4441 16.6601 21.4277C16.631 21.4112 16.5981 21.4026 16.5646 21.4027H10.0763C10.0428 21.4025 10.0098 21.4111 9.9806 21.4275C9.95139 21.4439 9.92693 21.4676 9.90959 21.4963C9.89225 21.5249 9.88263 21.5576 9.88167 21.5911C9.88071 21.6246 9.88844 21.6577 9.9041 21.6873C10.2361 22.3045 10.7289 22.8202 11.3303 23.18C11.9317 23.5397 12.6192 23.73 13.32 23.7307Z" fill="#9592A6"/>
</svg>
