<svg width="174" height="140" viewBox="0 0 174 140" fill="none" xmlns="http://www.w3.org/2000/svg">
    <g opacity="0.5">
        <path d="M1.0333 48.7696C1.06152 48.7132 1.08975 48.6638 1.11797 48.6144C1.13914 48.5791 1.1603 48.5438 1.18147 48.5015C1.20264 48.4662 1.22381 48.4239 1.24498 48.3886C2.02113 46.9986 3.12187 45.8696 4.38489 45.3193L4.74474 45.164L48.0685 26.2752L91.3922 7.38632L91.752 7.23109C93.015 6.68072 94.2005 6.81478 95.1318 7.45688C95.1601 7.47099 95.1812 7.49216 95.2094 7.50627C95.2377 7.52744 95.2588 7.54155 95.2871 7.56272L100.304 11.2671L97.0581 12.2338L101.362 70.3892C101.475 71.8921 101.045 73.4797 100.262 74.8697C100.24 74.912 100.219 74.9473 100.198 74.9897C100.177 75.0249 100.156 75.0602 100.135 75.0955C99.3584 76.4855 98.2576 77.6145 96.9946 78.1648L10.5871 115.837L10.9328 119.492L6.17711 115.971C6.17711 115.971 6.12771 115.936 6.09949 115.914C5.1681 115.272 4.54012 114.143 4.42722 112.64L0.0172364 53.095C-0.0886033 51.6485 0.299476 50.1244 1.02624 48.7696H1.0333Z" fill="white"/>
        <path d="M14.5596 119.901L101.92 81.8057C104.559 80.6556 106.499 76.9794 106.252 73.5996L101.906 14.9009C101.659 11.5211 99.309 9.71479 96.67 10.872L9.30995 48.9672C6.67101 50.1173 4.73062 53.7935 4.97758 57.1733L9.32406 115.872C9.57102 119.252 11.9207 121.058 14.5596 119.901V119.901Z" fill="url(#paint0_linear_51_673)"/>
        <path d="M9.6698 48.812L52.9935 29.9231L58.102 98.9306L14.9195 119.753C12.0829 120.988 9.59219 119.442 9.35934 116.302L4.94935 56.75C4.71651 53.603 6.82624 50.0538 9.6698 48.819V48.812Z" fill="url(#paint1_linear_51_673)"/>
        <path d="M96.3172 11.0272L52.9935 29.9161L58.0668 98.4861L101.567 81.9539C104.403 80.7191 106.52 77.1629 106.287 74.023L101.877 14.4705C101.644 11.3235 99.1537 9.77829 96.3172 11.0201V11.0272Z" fill="url(#paint2_linear_51_673)"/>
        <path d="M105.271 78.3554C104.417 79.95 103.098 81.2907 101.567 81.961L14.9194 119.746C13.3883 120.416 11.9559 120.268 10.9258 119.499L54.9551 56.4748L105.271 78.3554V78.3554Z" fill="url(#paint3_linear_51_673)"/>
        <path d="M5.96542 52.4176C6.8192 50.8229 8.13867 49.4823 9.66981 48.812L96.3172 11.0272C97.8484 10.3569 99.2808 10.5051 100.311 11.2742L56.2816 74.2982L5.96542 52.4176Z" fill="url(#paint4_linear_51_673)"/>
        <path d="M24.5791 60.0945C24.6073 60.038 24.6285 59.9745 24.6567 59.9181C24.6779 59.8758 24.692 59.8334 24.7132 59.7911C24.7343 59.7487 24.7555 59.7064 24.7767 59.6641C25.5034 58.1047 26.59 56.7993 27.9025 56.1079L28.2764 55.9103L73.35 32.054L118.417 8.19776L118.791 8.00019C120.103 7.30871 121.394 7.35104 122.446 7.97197C122.474 7.98608 122.502 8.00725 122.53 8.02136C122.558 8.04253 122.587 8.05664 122.615 8.07075L128.316 11.6481L124.901 12.9464L134.271 75.1661C134.511 76.7678 134.18 78.5177 133.453 80.077C133.432 80.1194 133.411 80.1617 133.396 80.2111C133.375 80.2534 133.361 80.2958 133.34 80.331C132.613 81.8904 131.527 83.1958 130.214 83.8873L40.321 131.473L40.9913 135.382L35.5935 131.981C35.5935 131.981 35.537 131.946 35.5088 131.931C34.4504 131.318 33.6813 130.153 33.4414 128.545L23.8453 64.8361C23.6124 63.2908 23.9088 61.6115 24.5791 60.1015V60.0945Z" fill="white"/>
        <path d="M44.9285 135.523L135.817 87.4153C138.568 85.9617 140.354 81.8481 139.81 78.2354L130.355 15.4301C129.812 11.8175 127.145 10.0676 124.393 11.5211L33.5049 59.6359C30.7531 61.0894 28.9679 65.203 29.5112 68.8157L38.9662 131.621C39.5095 135.234 42.1767 136.984 44.9285 135.53V135.523Z" fill="url(#paint5_linear_51_673)"/>
        <path d="M33.8718 59.4383L78.9454 35.582L90.0656 109.409L45.3025 135.325C42.3461 136.892 39.5448 135.431 39.0368 132.065L29.4407 68.357C28.9326 64.9913 30.9154 60.9977 33.8718 59.4383V59.4383Z" fill="url(#paint6_linear_51_673)"/>
        <path d="M124.019 11.7257L78.9454 35.582L89.9951 108.943L135.45 87.6128C138.406 86.0464 140.389 82.0527 139.881 78.694L130.285 14.9856C129.777 11.6199 126.975 10.1593 124.019 11.7257V11.7257Z" fill="url(#paint7_linear_51_673)"/>
        <path d="M139.14 83.4286C138.35 85.2067 137.044 86.7661 135.443 87.6128L45.2954 135.325C43.7008 136.172 42.1485 136.123 40.9772 135.382L83.2143 63.9894L139.133 83.4286H139.14Z" fill="url(#paint8_linear_51_673)"/>
        <path d="M30.1815 63.6225C30.9718 61.8444 32.2772 60.285 33.8789 59.4383L124.019 11.7258C125.614 10.879 127.166 10.9284 128.337 11.6693L86.1002 83.0617L30.1815 63.6225V63.6225Z" fill="url(#paint9_linear_51_673)"/>
    </g>
    <path d="M49.5008 59.8264C49.529 59.7629 49.5502 59.6994 49.5784 59.6358C49.5996 59.5935 49.6137 59.5441 49.6349 59.5018C49.656 59.4524 49.6772 59.4101 49.6984 59.3607C50.411 57.6672 51.5188 56.2419 52.8877 55.4446L53.2758 55.2188L100.353 28.0251L147.424 0.845431L147.812 0.619639C149.181 -0.17063 150.557 -0.177686 151.707 0.44324C151.742 0.457352 151.77 0.47852 151.798 0.492632C151.827 0.5138 151.862 0.527912 151.89 0.542024L158.106 4.12646L154.522 5.6435L166.955 71.5605C167.272 73.2609 166.99 75.1378 166.277 76.8242C166.256 76.8736 166.235 76.9159 166.221 76.9653C166.2 77.0077 166.186 77.0571 166.164 77.0994C165.452 78.7928 164.344 80.2252 162.975 81.0155L69.0812 135.248L69.949 139.383L64.0644 135.974C64.0644 135.974 64.0009 135.939 63.9726 135.925C62.8225 135.311 61.9617 134.098 61.6371 132.397L48.9081 64.8996C48.5977 63.2626 48.8517 61.4634 49.5079 59.8264H49.5008Z" fill="white"/>
    <path d="M74.1544 139.383L169.086 84.5505C171.957 82.8924 173.7 78.4471 172.973 74.6157L160.428 8.08488C159.708 4.25349 156.794 2.49655 153.922 4.1547L58.9911 58.9797C56.1193 60.6378 54.3765 65.0831 55.1033 68.9145L67.6488 135.445C68.3685 139.277 71.2826 141.034 74.1544 139.375V139.383Z" fill="url(#paint10_linear_51_673)"/>
    <path d="M59.3792 58.7539L106.457 31.5601L121.211 109.776L74.5425 139.15C71.459 140.935 68.4108 139.488 67.7405 135.925L55.0115 68.4276C54.3412 64.8644 56.2957 60.532 59.3792 58.7468V58.7539Z" fill="url(#paint11_linear_51_673)"/>
    <path d="M153.534 4.37343L106.457 31.5672L121.119 109.289L168.705 84.7763C171.788 82.9912 173.743 78.6588 173.072 75.0955L160.336 7.59802C159.666 4.03475 156.618 2.58827 153.534 4.37343V4.37343Z" fill="url(#paint12_linear_51_673)"/>
    <path d="M172.465 80.1688C171.696 82.0951 170.363 83.8097 168.698 84.7693L74.5425 139.157C72.8773 140.116 71.2262 140.13 69.9491 139.39L112.137 61.668L172.472 80.1758L172.465 80.1688Z" fill="url(#paint13_linear_51_673)"/>
    <path d="M55.6042 63.3614C56.3733 61.4352 57.7069 59.7206 59.3721 58.7609L153.534 4.37345C155.199 3.41383 156.85 3.39972 158.128 4.1406L115.94 81.8622L55.6042 63.3544V63.3614Z" fill="url(#paint14_linear_51_673)"/>
    <defs>
        <linearGradient id="paint0_linear_51_673" x1="61.2965" y1="62.9652" x2="-35.4315" y2="105.144" gradientUnits="userSpaceOnUse">
            <stop stop-color="#7BDAFF"/>
            <stop offset="1" stop-color="#59BDEF"/>
        </linearGradient>
        <linearGradient id="paint1_linear_51_673" x1="-33.0956" y1="172.065" x2="0.611972" y2="89.2007" gradientUnits="userSpaceOnUse">
            <stop offset="0.77" stop-color="#59BDEF"/>
            <stop offset="0.85" stop-color="#54B8EB"/>
            <stop offset="0.93" stop-color="#48AAE1"/>
            <stop offset="1" stop-color="#3A9BD5"/>
        </linearGradient>
        <linearGradient id="paint2_linear_51_673" x1="118.453" y1="105.818" x2="34.7856" y2="74.1288" gradientUnits="userSpaceOnUse">
            <stop offset="0.77" stop-color="#59BDEF"/>
            <stop offset="0.85" stop-color="#54B8EB"/>
            <stop offset="0.93" stop-color="#48AAE1"/>
            <stop offset="1" stop-color="#3A9BD5"/>
        </linearGradient>
        <linearGradient id="paint3_linear_51_673" x1="52.97" y1="175.88" x2="13.4627" y2="85.2785" gradientUnits="userSpaceOnUse">
            <stop offset="0.77" stop-color="#3A9BD5"/>
            <stop offset="0.84" stop-color="#3796D1"/>
            <stop offset="0.92" stop-color="#3088C8"/>
            <stop offset="1" stop-color="#2573BA"/>
        </linearGradient>
        <linearGradient id="paint4_linear_51_673" x1="26.1879" y1="26.2694" x2="-42.5604" y2="105.532" gradientUnits="userSpaceOnUse">
            <stop stop-color="#7BDAFF"/>
            <stop offset="1" stop-color="#59BDEF"/>
        </linearGradient>
        <linearGradient id="paint5_linear_51_673" x1="72.6135" y1="80.0282" x2="-28.0234" y2="133.29" gradientUnits="userSpaceOnUse">
            <stop stop-color="#7BDAFF"/>
            <stop offset="1" stop-color="#59BDEF"/>
        </linearGradient>
        <linearGradient id="paint6_linear_51_673" x1="-20.0586" y1="205.099" x2="9.45966" y2="113.197" gradientUnits="userSpaceOnUse">
            <stop offset="0.77" stop-color="#59BDEF"/>
            <stop offset="0.85" stop-color="#54B8EB"/>
            <stop offset="0.93" stop-color="#48AAE1"/>
            <stop offset="1" stop-color="#3A9BD5"/>
        </linearGradient>
        <linearGradient id="paint7_linear_51_673" x1="136.742" y1="121.803" x2="44.1493" y2="94.5282" gradientUnits="userSpaceOnUse">
            <stop offset="0.77" stop-color="#59BDEF"/>
            <stop offset="0.85" stop-color="#54B8EB"/>
            <stop offset="0.93" stop-color="#48AAE1"/>
            <stop offset="1" stop-color="#3A9BD5"/>
        </linearGradient>
        <linearGradient id="paint8_linear_51_673" x1="72.8539" y1="202.188" x2="22.9684" y2="107.931" gradientUnits="userSpaceOnUse">
            <stop offset="0.77" stop-color="#3A9BD5"/>
            <stop offset="0.84" stop-color="#3796D1"/>
            <stop offset="0.92" stop-color="#3088C8"/>
            <stop offset="1" stop-color="#2573BA"/>
        </linearGradient>
        <linearGradient id="paint9_linear_51_673" x1="31.8518" y1="43.4114" x2="-35.6598" y2="134.29" gradientUnits="userSpaceOnUse">
            <stop stop-color="#7BDAFF"/>
            <stop offset="1" stop-color="#59BDEF"/>
        </linearGradient>
        <linearGradient id="paint10_linear_51_673" x1="97.2343" y1="81.568" x2="-7.86882" y2="142.274" gradientUnits="userSpaceOnUse">
            <stop stop-color="#7BDAFF"/>
            <stop offset="1" stop-color="#59BDEF"/>
        </linearGradient>
        <linearGradient id="paint11_linear_51_673" x1="3.4454" y1="218.453" x2="31.2667" y2="119.393" gradientUnits="userSpaceOnUse">
            <stop offset="0.77" stop-color="#59BDEF"/>
            <stop offset="0.85" stop-color="#54B8EB"/>
            <stop offset="0.93" stop-color="#48AAE1"/>
            <stop offset="1" stop-color="#3A9BD5"/>
        </linearGradient>
        <linearGradient id="paint12_linear_51_673" x1="166.909" y1="123.872" x2="67.2003" y2="98.4705" gradientUnits="userSpaceOnUse">
            <stop offset="0.77" stop-color="#59BDEF"/>
            <stop offset="0.85" stop-color="#54B8EB"/>
            <stop offset="0.93" stop-color="#48AAE1"/>
            <stop offset="1" stop-color="#3A9BD5"/>
        </linearGradient>
        <linearGradient id="paint13_linear_51_673" x1="102.306" y1="211.693" x2="45.4458" y2="113.248" gradientUnits="userSpaceOnUse">
            <stop offset="0.77" stop-color="#3A9BD5"/>
            <stop offset="0.84" stop-color="#3796D1"/>
            <stop offset="0.92" stop-color="#3088C8"/>
            <stop offset="1" stop-color="#2573BA"/>
        </linearGradient>
        <linearGradient id="paint14_linear_51_673" x1="52.367" y1="44.1617" x2="-15.9674" y2="143.639" gradientUnits="userSpaceOnUse">
            <stop stop-color="#7BDAFF"/>
            <stop offset="1" stop-color="#59BDEF"/>
        </linearGradient>
    </defs>
</svg>
