<svg width="27" height="26" viewBox="0 0 27 26" fill="none" xmlns="http://www.w3.org/2000/svg">
<path d="M18.5619 2.58936C18.9355 2.58936 19.3055 2.66001 19.6507 2.79728C19.9959 2.93455 20.3096 3.13575 20.5738 3.3894C20.838 3.64304 21.0476 3.94416 21.1906 4.27557C21.3336 4.60697 21.4072 4.96217 21.4072 5.32088V19.7234C21.4072 20.0821 21.3336 20.4373 21.1906 20.7687C21.0476 21.1001 20.838 21.4013 20.5738 21.6549C20.3096 21.9086 19.9959 22.1098 19.6507 22.247C19.3055 22.3843 18.9355 22.455 18.5619 22.455H7.69787C7.32413 22.455 6.95405 22.3843 6.60877 22.2469C6.26349 22.1096 5.94978 21.9083 5.68555 21.6546C5.42133 21.4008 5.21176 21.0996 5.06883 20.7681C4.9259 20.4365 4.8524 20.0812 4.85254 19.7224V5.32088C4.85254 4.06934 5.72787 3.01647 6.92187 2.69166V4.3276C6.60733 4.55406 6.40454 4.91363 6.40454 5.32088V19.7214C6.40454 20.4068 6.98395 20.963 7.69787 20.963H18.5619C19.2758 20.963 19.8552 20.4068 19.8552 19.7214V5.32088C19.8552 4.63551 19.2758 4.07928 18.5619 4.07928H16.2339V2.58936H18.5619ZM15.1992 2.58936V10.6737C15.1992 11.4156 14.3715 11.6938 13.8645 11.4325L13.7796 11.3809L11.5799 10.1045L9.4299 11.3471C8.91257 11.7047 8.0538 11.4862 7.96378 10.7929L7.95654 10.6747V2.58936H15.1992ZM13.6472 4.07928H9.50854V9.56516L11.1361 8.62254C11.2657 8.55636 11.4096 8.51978 11.5563 8.51565C11.7031 8.51152 11.8489 8.53994 11.9824 8.5987L13.6482 9.56615V4.07928H13.6472Z" fill="#5855D6"/>
</svg>
