<svg width="26" height="27" viewBox="0 0 26 27" fill="none" xmlns="http://www.w3.org/2000/svg">
<path d="M19.8405 8.18334C19.6144 7.84432 19.2963 7.57683 18.9235 7.41226C18.5507 7.2477 18.1387 7.19289 17.7358 7.25426C17.0893 7.34637 16.4304 7.22058 15.8632 6.89675C15.2961 6.57291 14.8529 6.06946 14.6035 5.46582C14.2843 4.69336 13.5694 4.1639 12.7343 4.12197C12.428 4.10656 12.1211 4.10656 11.8148 4.12197C10.9741 4.16643 10.2562 4.70245 9.94047 5.48249C9.69618 6.08682 9.25793 6.59279 8.69467 6.92084C8.1314 7.24888 7.47507 7.38039 6.82889 7.29468C5.99479 7.18404 5.17434 7.54374 4.72116 8.25457C4.54105 8.53638 4.37677 8.828 4.22909 9.12808C3.87039 9.85861 4.00933 10.6993 4.51049 11.3404C4.91306 11.8544 5.13294 12.488 5.13541 13.1409C5.13788 13.7938 4.9228 14.429 4.52413 14.9461C4.026 15.5932 3.89262 16.4359 4.25688 17.169C4.33771 17.3306 4.4241 17.4908 4.51605 17.6494C4.5952 17.7841 4.67738 17.9165 4.76259 18.0465C4.98875 18.3855 5.30688 18.653 5.67966 18.8175C6.05245 18.9821 6.46444 19.0369 6.86729 18.9756C7.51389 18.8833 8.1728 19.009 8.74001 19.3329C9.30722 19.6567 9.7504 20.1603 9.99958 20.764C10.3189 21.5365 11.0342 22.066 11.8689 22.1074C12.1751 22.1233 12.482 22.1233 12.7883 22.1074C13.629 22.0634 14.3469 21.5274 14.6627 20.7474C14.9068 20.143 15.3449 19.637 15.9081 19.309C16.4713 18.9809 17.1276 18.8494 17.7737 18.9352C18.6083 19.0458 19.4288 18.6861 19.882 17.9753C20.0619 17.6933 20.226 17.4015 20.3735 17.1013C20.7327 16.3712 20.5938 15.5306 20.0921 14.8895C19.6898 14.3752 19.4701 13.7416 19.4677 13.0886C19.4653 12.4357 19.6804 11.8005 20.079 11.2833C20.5771 10.6366 20.7105 9.79394 20.3457 9.06291C20.2656 8.90124 20.1792 8.74109 20.0866 8.58245C20.0078 8.44672 19.9257 8.31368 19.8405 8.18334Z" stroke="#9592A6" stroke-width="1.37083" stroke-linecap="round" stroke-linejoin="round"/>
<path d="M12.3025 15.5412C13.6423 15.5412 14.7285 14.455 14.7285 13.1152C14.7285 11.7753 13.6423 10.6891 12.3025 10.6891C10.9626 10.6891 9.87646 11.7753 9.87646 13.1152C9.87646 14.455 10.9626 15.5412 12.3025 15.5412Z" stroke="#9592A6" stroke-width="1.55043" stroke-linecap="round" stroke-linejoin="round"/>
</svg>
