<svg width="17" height="17" viewBox="0 0 17 17" fill="none" xmlns="http://www.w3.org/2000/svg">
<path d="M16.8411 8.95681L8.43838 0.554095C8.31317 0.428888 8.13446 0.375263 7.97358 0.411054L3.28951 1.14409L4.23705 2.09163L7.86631 1.51947L15.6969 9.35008L9.35019 15.6789L1.51958 7.84832L2.09174 4.21906L1.1442 3.27152L0.411167 7.95559C0.375375 8.13442 0.446958 8.2953 0.554207 8.42039L8.95692 16.8231C9.06417 16.9304 9.20721 16.984 9.33243 16.984C9.47547 16.984 9.60055 16.9304 9.70793 16.8231L16.8234 9.70761C17.0558 9.51107 17.0558 9.17136 16.8413 8.95673L16.8411 8.95681Z" fill="#263238"/>
<path d="M3.68283 5.57784C3.68283 6.63262 4.54095 7.49086 5.59586 7.49086C6.65063 7.49086 7.50888 6.63275 7.50888 5.57784C7.50875 4.52306 6.65063 3.66495 5.59573 3.66495C5.25601 3.66495 4.95212 3.75436 4.68398 3.8974L0.929572 0.160874C0.715073 -0.0536248 0.375382 -0.0536248 0.160877 0.160874C-0.0536288 0.375373 -0.0536224 0.715064 0.160877 0.929569L3.8974 4.6661C3.77232 4.93434 3.6829 5.23826 3.6829 5.57794L3.68283 5.57784ZM6.436 5.57784C6.436 6.04264 6.06049 6.41811 5.59573 6.41811C5.13096 6.41811 4.75546 6.04274 4.75546 5.57784C4.75546 5.11304 5.13096 4.73757 5.59573 4.73757C6.06062 4.73757 6.436 5.11307 6.436 5.57784Z" fill="#263238"/>
</svg>
