<svg width="18" height="14" viewBox="0 0 18 14" fill="none" xmlns="http://www.w3.org/2000/svg">
<path d="M17.0185 1.65177C16.4184 1.91741 15.782 2.0918 15.1304 2.16913C15.8155 1.75792 16.328 1.11186 16.5723 0.351164C15.9275 0.735121 15.2217 1.00598 14.4855 1.15203C13.9897 0.627597 13.3351 0.280751 12.6226 0.164946C11.9101 0.0491406 11.1793 0.170805 10.5428 0.511188C9.90635 0.851572 9.3995 1.39178 9.1004 2.04856C8.8013 2.70534 8.72655 3.44223 8.88767 4.14567C7.58066 4.08035 6.302 3.74093 5.13473 3.14943C3.96746 2.55794 2.93769 1.72761 2.11227 0.712355C1.69231 1.43592 1.56375 2.29222 1.75273 3.10717C1.94171 3.92211 2.43404 4.6345 3.12962 5.0995C2.60674 5.08369 2.09525 4.94281 1.63804 4.68866C1.63804 4.70227 1.63804 4.71589 1.63804 4.73031C1.63862 5.48996 1.90226 6.22599 2.38416 6.81332C2.86606 7.40066 3.5365 7.80307 4.28155 7.95219C3.79754 8.08397 3.28976 8.10314 2.79718 8.00825C3.00704 8.66128 3.41585 9.23237 3.9664 9.64163C4.51696 10.0509 5.18172 10.2778 5.86766 10.2907C4.70235 11.2047 3.26333 11.7 1.78224 11.697C1.51988 11.6973 1.25775 11.682 0.997192 11.6514C2.50015 12.617 4.24935 13.1297 6.03588 13.1282C12.0815 13.1282 15.3875 8.12038 15.3875 3.77807C15.3875 3.63552 15.3875 3.49377 15.3787 3.35281C16.0221 2.88778 16.5774 2.31174 17.0185 1.65177Z" fill="#FF725E"/>
</svg>
